<svg width="68" height="68" fill="none" xmlns="http://www.w3.org/2000/svg">
  <g clip-path="url(#a)" fill="currentColor">
    <path d="m38.931 17.759-9.75 16.977a.53.53 0 0 1-.457.264H9.68a.528.528 0 0 1-.456-.264L.069 18.796a.523.523 0 0 1 .459-.784H5.78a.527.527 0 0 1 .457.263l2.216 3.85 3.154 5.502.929 1.607a.531.531 0 0 0 .457.264h12.429a.532.532 0 0 0 .457-.264l.919-1.607 3.159-5.502 2.507-4.366a.52.52 0 0 0 0-.52l-2.507-4.367-3.16-5.497-.623-1.093a.524.524 0 0 1 0-.522l2.638-4.552a.526.526 0 0 1 .914 0l9.206 16.03a.526.526 0 0 1 0 .52Z"/>
    <path d="m12.536 5.763-.473.833a.524.524 0 0 0 .456.785h8.636a.528.528 0 0 1 .526.523.524.524 0 0 1-.069.262l-2.407 4.174-.157.278a.526.526 0 0 1-.455.261H8.759a.528.528 0 0 0-.457.264l-2 3.47a.526.526 0 0 1-.456.264H.592a.528.528 0 0 1-.524-.526c0-.092.025-.183.071-.262L9.224.264A.526.526 0 0 1 9.68 0h17.602a.528.528 0 0 1 .527.525.523.523 0 0 1-.07.262l-2.579 4.45a.524.524 0 0 1-.455.262H12.99a.527.527 0 0 0-.454.264Z"/>
  </g>
  <defs>
    <clipPath id="a">
      <path fill="#fff" d="M0 0h39v35H0z"/>
    </clipPath>
  </defs>
</svg>
