<svg width="68" height="68" viewBox="11 0 68 68" fill="none" xmlns="http://www.w3.org/2000/svg">
  <path d="M57.262 2.278a7.217 7.217 0 0 1 6.333 3.656L75.53 26.928c1.297 2.28 1.278 5.1-.048 7.397L63.269 55.479c-1.327 2.297-3.76 3.723-6.382 3.74l-24.149.16a7.216 7.216 0 0 1-6.333-3.656L14.47 34.73c-1.296-2.28-1.278-5.1.048-7.397L26.733 6.179c1.326-2.297 3.759-3.723 6.381-3.74l24.149-.16Z" fill="#E81845"/>
  <g filter="url(#a)">
    <path fill-rule="evenodd" clip-rule="evenodd" d="M62.357 8.078a7.217 7.217 0 0 0-6.333-3.656l-21.702.144c-2.622.017-5.055 1.443-6.381 3.74l-10.976 19.01c-1.326 2.298-1.345 5.118-.048 7.398L27.643 53.58a7.217 7.217 0 0 0 6.333 3.656l21.702-.144c2.622-.017 5.055-1.443 6.381-3.74l10.976-19.01c1.326-2.298 1.345-5.118.049-7.398L62.356 8.078Zm7.89 20.529L59.521 9.74a4.01 4.01 0 0 0-3.518-2.031L34.3 7.853a4.137 4.137 0 0 0-3.545 2.078L19.78 28.941a4.137 4.137 0 0 0-.027 4.11l10.726 18.866a4.01 4.01 0 0 0 3.518 2.032l21.702-.144a4.137 4.137 0 0 0 3.546-2.078l10.975-19.01a4.137 4.137 0 0 0 .027-4.11Z" fill="#fff"/>
  </g>
  <g clip-path="url(#b)" fill="#fff">
    <path d="M61.194 31.073 53.07 47.08a.474.474 0 0 1-.161.182.405.405 0 0 1-.22.067h-15.87a.402.402 0 0 1-.22-.067.471.471 0 0 1-.16-.182L28.81 32.05a.545.545 0 0 1 .002-.493.47.47 0 0 1 .16-.18.402.402 0 0 1 .22-.066h4.377a.4.4 0 0 1 .22.067.47.47 0 0 1 .16.182l1.848 3.63 2.628 5.187.774 1.516a.474.474 0 0 0 .16.181.404.404 0 0 0 .22.068h10.358a.404.404 0 0 0 .22-.068.474.474 0 0 0 .16-.181l.767-1.516 2.632-5.187 2.09-4.117a.54.54 0 0 0 0-.49l-2.09-4.117-2.632-5.184-.52-1.03a.546.546 0 0 1 0-.492l2.198-4.292a.472.472 0 0 1 .16-.182.402.402 0 0 1 .441 0 .472.472 0 0 1 .16.182l7.672 15.114a.547.547 0 0 1 0 .491Z"/>
    <path d="m39.197 19.762-.395.786a.543.543 0 0 0 .001.494.471.471 0 0 0 .16.18.401.401 0 0 0 .22.067h7.197a.4.4 0 0 1 .218.066.47.47 0 0 1 .16.18.544.544 0 0 1 .002.493l-2.005 3.936-.132.262a.47.47 0 0 1-.16.18.402.402 0 0 1-.22.066H36.05a.4.4 0 0 0-.22.067.47.47 0 0 0-.16.182L34 29.993a.472.472 0 0 1-.16.182.403.403 0 0 1-.22.067h-4.378a.403.403 0 0 1-.218-.068.471.471 0 0 1-.16-.181.544.544 0 0 1 .001-.495l7.57-14.92a.47.47 0 0 1 .161-.182.401.401 0 0 1 .22-.067h14.669c.077 0 .153.022.22.066a.471.471 0 0 1 .16.18.546.546 0 0 1 0 .496l-2.148 4.195a.47.47 0 0 1-.16.181.4.4 0 0 1-.22.067h-9.763a.4.4 0 0 0-.218.067.472.472 0 0 0-.16.181Z"/>
  </g>
  <defs>
    <clipPath id="b">
      <path fill="#fff" transform="translate(28.75 14.329)" d="M0 0h32.5v33H0z"/>
    </clipPath>
    <filter id="a" x="15.957" y="4.421" width="58.085" height="53.815" filterUnits="userSpaceOnUse" color-interpolation-filters="sRGB">
      <feFlood flood-opacity="0" result="BackgroundImageFix"/>
      <feBlend in="SourceGraphic" in2="BackgroundImageFix" result="shape"/>
      <feColorMatrix in="SourceAlpha" values="0 0 0 0 0 0 0 0 0 0 0 0 0 0 0 0 0 0 127 0" result="hardAlpha"/>
      <feOffset dy="1"/>
      <feGaussianBlur stdDeviation=".5"/>
      <feComposite in2="hardAlpha" operator="arithmetic" k2="-1" k3="1"/>
      <feColorMatrix values="0 0 0 0 0 0 0 0 0 0 0 0 0 0 0 0 0 0 0.25 0"/>
      <feBlend in2="shape" result="effect1_innerShadow_295_92350"/>
    </filter>
  </defs>
</svg>